<?xml version="1.0" encoding="utf-8"?>
<!-- Generator: Adobe Illustrator 19.1.0, SVG Export Plug-In . SVG Version: 6.00 Build 0)  -->
<svg version="1.1" xmlns="http://www.w3.org/2000/svg" xmlns:xlink="http://www.w3.org/1999/xlink" x="0px" y="0px"
	 viewBox="0 0 150 150" style="enable-background:new 0 0 150 150;" xml:space="preserve">
<style type="text/css">
	.st0{fill:#841313;}
</style>
<g id="Layer_1">
</g>
<g id="Layer_2">
	<g>
		<path class="st0" d="M75,3c39.7,0,72,32.3,72,72s-32.3,72-72,72S3,114.7,3,75S35.3,3,75,3 M75,0C33.6,0,0,33.6,0,75s33.6,75,75,75
			s75-33.6,75-75S116.4,0,75,0L75,0z"/>
	</g>
	<path class="st0" d="M105,59.8c0-3.2-2.6-5.8-5.8-5.8H50.8c-3.2,0-5.8,2.6-5.8,5.8v31.3c0,3.2,2.6,5.8,5.8,5.8h48.3
		c3.2,0,5.8-2.6,5.8-5.8V59.8z M74,83.7c0.3,0.3,0.6,0.4,1,0.4c0,0,0,0,0,0c0,0,0,0,0,0c0.4,0,0.7-0.2,1-0.4l5.2-5.1L96.6,94H53.4
		l15.4-15.4L74,83.7z M75,81.3L51.3,57h47.4L75,81.3z M48,90.5V59.5c0-0.6,0.3-1.3,0.6-1.7l18.2,18.6L49.7,93.2
		C48.7,92.7,48,91.6,48,90.5z M102,90.5c0,1.2-0.8,2.2-1.7,2.7L83.1,76.4l18.2-18.6c0.3,0.5,0.6,1.1,0.6,1.7V90.5z"/>
</g>
</svg>
