<?xml version="1.0" encoding="utf-8"?>
<!-- Generator: Adobe Illustrator 19.1.0, SVG Export Plug-In . SVG Version: 6.00 Build 0)  -->
<svg version="1.1" id="Layer_1" xmlns="http://www.w3.org/2000/svg" xmlns:xlink="http://www.w3.org/1999/xlink" x="0px" y="0px"
	 viewBox="0 0 150 150" style="enable-background:new 0 0 150 150;" xml:space="preserve">
<style type="text/css">
	.st0{fill:#841313;}
	.st1{fill:#FFFFFF;}
</style>
<g>
	<circle class="st0" cx="75" cy="75" r="75"/>
	<g>
		<g>
			<path class="st1" d="M105.4,114.4H45.5l-4.8-6.9l23.6-33L40.8,42.4l3.9-6.8h59.7l4.8,6.8L84.1,74.2l25.1,33.6L105.4,114.4z
				 M46.5,112.5h57.9l2.7-4.6L81.8,74.2l25.1-31.9l-3.4-4.8H45.8L43,42.3l23.7,32.2L43,107.5L46.5,112.5z"/>
		</g>
		<g>
			
				<rect x="57.1" y="76.6" transform="matrix(0.8095 0.5872 -0.5872 0.8095 67.9894 -15.5716)" class="st1" width="1.9" height="40.8"/>
		</g>
		<g>
			<polygon class="st1" points="74.8,63.6 73.3,62.4 88.6,43.3 41.9,43.3 41.9,41.4 92.4,41.4 			"/>
		</g>
		<g>
			<polygon class="st1" points="97.6,102.8 60.5,102.8 73.2,84.8 74.8,85.9 64.1,100.9 93.8,100.9 51.7,46.3 86.8,46.3 86.8,48.1 
				55.5,48.1 			"/>
		</g>
		<g>
			
				<rect x="54.7" y="60.3" transform="matrix(0.6166 0.7873 -0.7873 0.6166 76.0944 -33.8173)" class="st1" width="36.1" height="1.9"/>
		</g>
		<g>
			
				<rect x="58.5" y="87" transform="matrix(0.6133 0.7899 -0.7899 0.6133 98.8499 -25.9814)" class="st1" width="34.9" height="1.9"/>
		</g>
		<g>
			<polygon class="st1" points="108.2,108.9 55.9,108.9 61.5,101.4 63,102.5 59.6,107 108.2,107 			"/>
		</g>
		<g>
			
				<rect x="90.5" y="32.1" transform="matrix(0.7927 0.6096 -0.6096 0.7927 50.9949 -44.8231)" class="st1" width="1.9" height="41"/>
		</g>
	</g>
</g>
</svg>
