<?xml version="1.0" encoding="utf-8"?>
<!-- Generator: Adobe Illustrator 19.2.1, SVG Export Plug-In . SVG Version: 6.00 Build 0)  -->
<svg version="1.1" id="Layer_2" xmlns="http://www.w3.org/2000/svg" xmlns:xlink="http://www.w3.org/1999/xlink" x="0px" y="0px"
	 viewBox="0 0 507 588" style="enable-background:new 0 0 507 588;" xml:space="preserve">
<style type="text/css">
	.st0{fill:#FFFFFF;}
</style>
<path class="st0" d="M473.3,578.3c8.4-14.7,17.8-32.4,26.3-47c0.8-1.4,0.8-2.3-0.2-3.6c-14.1-18.7-28.1-36.4-42.1-55.2
	c-23.9-31.9-47.9-63.9-71.8-95.8c-21.9-29.2-43.7-58.4-65.5-87.6c-1.1-1.5-1.2-1.2,0-2.7c5.8-7.4,11.7-14.9,17.5-22.3
	c53.8-68.4,161.3-205.1,161.3-205.1L463.6,9.2l-428,0.7l-30,48.3c0,0,112.9,153.1,168.8,229c1.8,2.4,1.8,1.6,0,4
	c-56,78.4-112,156.8-168,235.2c-1.6,2.2-1.4,1.5,0,3.5c10.6,15.4,23.2,32.8,33.8,48.3 M256.2,578.3 M351.6,353.8
	c39.9,53.3,79.8,106.5,119.7,159.8c2.7,3.6,5.4,7.3,8.4,11.3c-112.7,0-225.1,0-337.4,0c-0.3-0.6,0.3-0.9,0.6-1.3
	c6.9-9.3,13.7-18.7,20.6-28c0.7-1,1.5-1.6,2.7-1.4c0.4,0.1,0.9,0,1.3,0c82,0,164,0,246,0c0.9,0,1.7,0,3,0
	C314.8,362.3,213.5,230.8,111.9,98.9c1,0,1.6,0,2.1,0c12.7,0,25.4,0,38.1,0c1.3,0,2.1,0.3,3,1.4c50.3,64.3,100.7,128.4,150.9,192.8
	C321.5,313,336.4,333.5,351.6,353.8z M174.1,480.4c23.9-33.6,47.6-67,71.5-100.6c26.1,33.6,52,67,78,100.5
	C322,480.7,177.6,480.9,174.1,480.4z M171.2,99c50.7,0,101,0,151.7,0c-25.6,32.2-50.9,64.1-76.4,96.1
	C221.4,163.1,196.4,131.2,171.2,99z M482,58.5c0,0-86.7,110.3-130.1,165.4c-13.3,16.9-26.6,33.8-39.9,50.7c-0.5,0.6-1,1.2-1.5,1.8
	c-0.7-0.1-0.9-0.7-1.2-1c-6.3-8.1-12.7-16.2-19-24.3c-1.5-1.9-1.3-1.5,0-3.3C341.9,180.8,393.5,113.7,445,46.6
	c4.9-6.3,14.6-19,14.6-19L482,58.5z M26.7,50.9l16.5-29.2c0,0,267.6,0,400.8,0c0.9,0,1.8,0,3.2,0C391.4,94.2,336,166.2,280.7,238.2
	c-0.8-0.3-1.1-0.8-1.4-1.3c-7.7-9.8-15.3-19.5-22.9-29.3c-1.2-1.6-1.2-1.6,0.1-3.2c24.5-30.8,49-61.6,73.4-92.4
	c15.8-19.9,48.6-61.6,48.6-61.6L26.7,50.9z M167.3,254.9C121.1,192.2,75,129.5,28.9,66.8c-0.6-0.9-1.4-1.7-1.9-2.8
	c107.9,0,215.6,0,323.4,0c-0.1,0.9-0.7,1.3-1.1,1.8c-4.7,6-9.5,11.9-14.2,18c-1,1.3-2,1.8-3.7,1.8c-28-0.1-56.1,0-84.1,0
	c-53.3,0-106.6,0-159.9,0c-0.8,0-1.7,0-3.1,0C186,217.3,287.3,348.7,388.6,480.1c-0.4,0.8-1,0.5-1.4,0.5c-14.8,0-29.7,0-44.5,0.1
	c-1.5,0-2.2-0.8-3-1.8c-11.9-15.4-23.8-30.7-35.8-46.1c-36.5-47.1-73.1-94.1-109.6-141.2C185,279.6,176.3,267.1,167.3,254.9z
	 M43.4,559.7c-0.7-0.3-0.9-0.9-1.3-1.4c-6.5-9.4-12.9-18.7-19.3-28.1c-1.5-2.2-1.5-1.5,0.1-3.7c29.8-41.7,59.5-83.3,89.3-125
	c23.5-32.9,47-65.8,70.5-98.7c0.5-0.6,0.8-1.4,1.7-2c5.2,6.7,10.3,13.3,15.5,19.9c2.4,3.1,4.9,6.3,7.3,9.4c1.5,1.9,1.5,1.9,0,4
	c-15.4,21.2-30.8,42.4-46.1,63.6c-38.7,53.4-77.5,106.8-116.2,160.1C44.4,558.5,43.9,559.1,43.4,559.7z M478.1,542.5
	c-4,6.9-8,13.8-11.9,20.8c-0.7,1.2-1.4,1.8-2.7,1.6c-0.4-0.1-0.7,0-1.1,0c-134.3,0-268.5,0-402.8,0c-0.9,0-1.7,0-2.6,0
	c0.6-1.6,157.7-218.5,160.3-221.4c0.6,0.3,0.9,0.9,1.3,1.4c5.8,7.4,11.5,14.8,17.3,22.3c1.3,1.7,1.4,1.2,0,3.1
	c-26,36.5-52,73.1-77.9,109.6c-13.4,18.8-27.3,37.3-40.9,56c-0.5,0.8-1.1,1.5-1.9,2.6c121.9,0,243.4,0,365.4,0
	C479.4,540.1,478.8,541.3,478.1,542.5z"/>
</svg>
