<?xml version="1.0" encoding="utf-8"?>
<!-- Generator: Adobe Illustrator 16.0.0, SVG Export Plug-In . SVG Version: 6.00 Build 0)  -->
<!DOCTYPE svg PUBLIC "-//W3C//DTD SVG 1.1//EN" "http://www.w3.org/Graphics/SVG/1.1/DTD/svg11.dtd">
<svg version="1.1" id="Layer_2" xmlns="http://www.w3.org/2000/svg" xmlns:xlink="http://www.w3.org/1999/xlink" x="0px" y="0px"
	 viewBox="0 0 966.097 1116.111" preserveAspectRatio="xMinYMin meet" enable-background="new 0 0 966.097 1116.111"
	 xml:space="preserve">
<polygon fill-rule="evenodd" clip-rule="evenodd" fill="none" stroke="#F10F0F" stroke-width="25" stroke-miterlimit="10" points="
	38,992.465 354.405,549.657 37.881,119.456 82.839,41.736 869.229,41.736 924.297,119.349 588.313,546.578 925.797,997.147 
	882.299,1072.736 93.229,1072.736 "/>
<line fill-rule="evenodd" clip-rule="evenodd" fill="none" stroke="#F10F0F" stroke-width="25" stroke-miterlimit="10" x1="414.322" y1="630.323" x2="93.338" y2="1072.801"/>
<polyline fill-rule="evenodd" clip-rule="evenodd" fill="none" stroke="#F10F0F" stroke-width="25" stroke-miterlimit="10" points="
	38.229,119.736 689.229,119.736 469.319,396.335 "/>
<polyline fill-rule="evenodd" clip-rule="evenodd" fill="none" stroke="#F10F0F" stroke-width="25" stroke-miterlimit="10" points="
	639.229,184.736 195.229,184.736 759.305,916.736 311.229,916.736 468.319,695.82 "/>
<line fill-rule="evenodd" clip-rule="evenodd" fill="none" stroke="#F10F0F" stroke-width="25" stroke-miterlimit="10" x1="302.828" y1="182.346" x2="600.813" y2="562.827"/>
<line fill-rule="evenodd" clip-rule="evenodd" fill="none" stroke="#F10F0F" stroke-width="25" stroke-miterlimit="10" x1="351.325" y1="546.328" x2="637.811" y2="915.309"/>
<polyline fill-rule="evenodd" clip-rule="evenodd" fill="none" stroke="#F10F0F" stroke-width="25" stroke-miterlimit="10" points="
	926.229,998.736 251.229,998.736 310.827,917.809 "/>
<line fill-rule="evenodd" clip-rule="evenodd" fill="none" stroke="#F10F0F" stroke-width="25" stroke-miterlimit="10" x1="868.8" y1="39.353" x2="534.316" y2="474.331"/>
</svg>
