<?xml version="1.0" encoding="utf-8"?>
<!-- Generator: Adobe Illustrator 19.1.0, SVG Export Plug-In . SVG Version: 6.00 Build 0)  -->
<svg version="1.1" id="Layer_1" xmlns="http://www.w3.org/2000/svg" xmlns:xlink="http://www.w3.org/1999/xlink" x="0px" y="0px"
	 viewBox="0 0 400 400" style="enable-background:new 0 0 400 400;" xml:space="preserve">
<style type="text/css">
	.st0{fill:#FFFFFF;}
</style>
<path class="st0" d="M175.6,197.5c2.4,7,5.6,12.9,10.5,17.8c16.2,16.1,42.3,16.2,58.5,0c19.7-19.7,39.4-39.4,59.1-59.1
	c16-16,16.2-41.5,0.4-58c-15.3-16-41.1-17.1-57.5-2.1c-7.3,6.6-14,13.9-20.9,20.9c-1.2,1.3-2.2,1.5-3.9,0.9
	c-16-5.8-32.4-7.6-49.2-5.3c-0.4,0.1-0.8,0-1.6,0c0.5-0.6,0.7-1.1,1.1-1.4c15.1-15.1,29.7-30.7,45.5-45.1
	c24.5-22.4,53.4-28.4,84.5-17.4c30.7,10.8,49.2,33.4,54.4,65.6c4.5,27.9-4,52.3-23.9,72.4c-19.8,20-39.8,39.9-59.8,59.7
	c-31.5,31.2-85.1,30.4-116.3-1.8c-4.3-4.5-7.8-9.8-11.5-14.9c-0.5-0.7-0.3-2.6,0.3-3.2c8.5-8.7,17.1-17.2,25.7-25.8
	C172.2,199.5,173.9,198.7,175.6,197.5z"/>
<path class="st0" d="M225.7,203.9c-4.4-13.4-12.5-22.7-25.1-27.2c-16.8-6.1-31.9-2.5-44.6,9.9c-19.6,19.2-39,38.6-58.2,58.2
	c-11.5,11.7-15.3,25.8-10.5,41.6c4.7,15.3,15.2,25,30.9,28.5c15,3.3,28-1.1,38.9-11.9c6.3-6.2,12.4-12.5,18.7-18.6
	c0.8-0.7,2.5-1.2,3.5-0.9c16.2,5.8,32.8,7.5,49.9,5.1c0.2,0,0.4,0,0.8,0.1c-0.2,0.4-0.4,0.8-0.6,1.1c-15.3,15.2-30,31-45.9,45.5
	c-24,21.9-52.4,28-83,17.8c-30.5-10.2-49.3-32-55.3-63.7c-5.3-28.2,2.5-53.1,22.5-73.7c20.2-20.7,40.5-41.4,61.5-61.3
	c37.6-35.6,99.2-27.6,126.5,15.9c1.5,2.3,1.4,3.7-0.6,5.7c-8.3,8-16.3,16.2-24.5,24.2C229.3,201.5,227.6,202.5,225.7,203.9z"/>
</svg>
