<?xml version="1.0" encoding="utf-8"?>
<!-- Generator: Adobe Illustrator 18.1.1, SVG Export Plug-In . SVG Version: 6.00 Build 0)  -->
<svg version="1.1" id="Layer_1" xmlns="http://www.w3.org/2000/svg" xmlns:xlink="http://www.w3.org/1999/xlink" x="0px" y="0px"
	 viewBox="0 0 1038 278" enable-background="new 0 0 1038 278" xml:space="preserve">
<g>
	<path fill="#9d2235" d="M313.3,54h15.2v59.6h36.3v13.1h-51.4V54z"/>
	<path fill="#9d2235" d="M418.6,120c-4.5,5.6-11.4,8.4-20.6,8.4c-9.2,0-16.1-2.8-20.6-8.4s-6.8-12.3-6.8-20.2c0-7.7,2.3-14.5,6.8-20.1
		s11.4-8.5,20.6-8.5c9.2,0,16.1,2.8,20.6,8.5s6.8,12.4,6.8,20.1C425.4,107.7,423.1,114.4,418.6,120z M407.4,112.3
		c2.2-2.9,3.3-7.1,3.3-12.4c0-5.4-1.1-9.5-3.3-12.4c-2.2-2.9-5.4-4.4-9.5-4.4c-4.1,0-7.3,1.5-9.5,4.4c-2.2,2.9-3.3,7-3.3,12.4
		c0,5.4,1.1,9.5,3.3,12.4c2.2,2.9,5.4,4.4,9.5,4.4C402,116.6,405.2,115.2,407.4,112.3z"/>
	<path fill="#9d2235" d="M478.7,76c3.5,2.9,5.3,7.7,5.3,14.5v36.2h-14.4V93.9c0-2.8-0.4-5-1.1-6.5c-1.4-2.8-4-4.1-7.8-4.1c-4.7,0-8,2-9.7,6.1
		c-0.9,2.1-1.4,4.9-1.4,8.2v29.1h-14V73h13.6v7.8c1.8-2.8,3.5-4.7,5.1-6c2.9-2.2,6.5-3.3,10.9-3.3C470.7,71.6,475.2,73.1,478.7,76z"
		/>
	<path fill="#9d2235" d="M525.5,73.8c2.5,1.4,4.6,3.4,6.2,5.9V54.1h14.2v72.5h-13.6v-7.4c-2,3.2-4.3,5.5-6.8,6.9c-2.6,1.4-5.7,2.2-9.6,2.2
		c-6.3,0-11.6-2.5-15.8-7.6c-4.3-5.1-6.4-11.6-6.4-19.5c0-9.2,2.1-16.4,6.3-21.6c4.2-5.3,9.9-7.9,16.9-7.9
		C520.1,71.6,523,72.3,525.5,73.8z M529,112c2.1-3,3.1-6.8,3.1-11.5c0-6.6-1.7-11.3-5-14.1c-2-1.7-4.4-2.6-7.1-2.6
		c-4.1,0-7.1,1.6-9,4.7s-2.9,7-2.9,11.6c0,5,1,8.9,2.9,11.9c2,3,4.9,4.5,8.9,4.5C523.9,116.4,526.9,115,529,112z"/>
	<path fill="#9d2235" d="M603.5,120c-4.5,5.6-11.4,8.4-20.6,8.4c-9.2,0-16.1-2.8-20.6-8.4c-4.5-5.6-6.8-12.3-6.8-20.2c0-7.7,2.3-14.5,6.8-20.1
		c4.5-5.7,11.4-8.5,20.6-8.5c9.2,0,16.1,2.8,20.6,8.5c4.5,5.7,6.8,12.4,6.8,20.1C610.3,107.7,608,114.4,603.5,120z M592.2,112.3
		c2.2-2.9,3.3-7.1,3.3-12.4c0-5.4-1.1-9.5-3.3-12.4c-2.2-2.9-5.4-4.4-9.5-4.4s-7.3,1.5-9.5,4.4c-2.2,2.9-3.3,7-3.3,12.4
		c0,5.4,1.1,9.5,3.3,12.4c2.2,2.9,5.4,4.4,9.5,4.4S590,115.2,592.2,112.3z"/>
	<path fill="#9d2235" d="M663.6,76c3.5,2.9,5.3,7.7,5.3,14.5v36.2h-14.4V93.9c0-2.8-0.4-5-1.1-6.5c-1.4-2.8-4-4.1-7.8-4.1c-4.7,0-8,2-9.7,6.1
		c-0.9,2.1-1.4,4.9-1.4,8.2v29.1h-14V73H634v7.8c1.8-2.8,3.5-4.7,5.1-6c2.9-2.2,6.5-3.3,10.9-3.3C655.6,71.6,660.1,73.1,663.6,76z"
		/>
</g>
<g>
	<path fill="#9d2235" d="M541.3,201.8c0.5,3.3,1.4,5.8,2.8,7.4c2.5,3,6.8,4.5,12.9,4.5c3.7,0,6.6-0.4,8.9-1.2c4.3-1.5,6.5-4.3,6.5-8.4
		c0-2.4-1.1-4.3-3.2-5.6c-2.1-1.3-5.5-2.4-10.1-3.4l-7.9-1.7c-7.7-1.7-13-3.6-15.9-5.6c-4.9-3.3-7.3-8.6-7.3-15.7
		c0-6.5,2.4-11.9,7.2-16.2c4.8-4.3,11.8-6.5,21.1-6.5c7.7,0,14.4,2,19.8,6.1s8.3,9.9,8.6,17.7h-14.6c-0.3-4.4-2.2-7.5-5.9-9.3
		c-2.4-1.2-5.4-1.8-9-1.8c-4,0-7.2,0.8-9.6,2.4c-2.4,1.6-3.6,3.8-3.6,6.6c0,2.6,1.2,4.5,3.5,5.8c1.5,0.9,4.7,1.9,9.6,3l12.7,3
		c5.6,1.3,9.8,3.1,12.6,5.3c4.3,3.4,6.5,8.4,6.5,14.8c0,6.6-2.6,12.1-7.7,16.5c-5.1,4.4-12.4,6.6-21.7,6.6c-9.6,0-17.1-2.2-22.6-6.5
		c-5.5-4.3-8.2-10.3-8.2-17.8H541.3z"/>
	<path fill="#9d2235" d="M608.4,224.3h-15.1v-72.6h15.1V224.3z"/>
	<path fill="#9d2235" d="M668.4,174.3c-1.2-5-4-8.4-8.4-10.4c-2.5-1.1-5.3-1.6-8.3-1.6c-5.8,0-10.6,2.2-14.4,6.6s-5.6,11-5.6,19.9
		c0,8.9,2,15.2,6.1,18.9c4.1,3.7,8.7,5.6,13.9,5.6c5.1,0,9.3-1.5,12.5-4.4c3.2-2.9,5.3-6.7,6-11.5h-16.8v-12.1h30.2v39h-10l-1.5-9.1
		c-2.9,3.4-5.6,5.9-7.9,7.3c-4,2.5-8.9,3.7-14.8,3.7c-9.6,0-17.5-3.3-23.6-10c-6.4-6.7-9.6-15.8-9.6-27.5c0-11.7,3.2-21.2,9.7-28.3
		c6.5-7.1,15-10.6,25.7-10.6c9.2,0,16.6,2.3,22.2,7c5.6,4.7,8.8,10.5,9.6,17.5H668.4z"/>
	<path fill="#9d2235" d="M743.9,174.3c-1.1-5-4-8.4-8.4-10.4c-2.5-1.1-5.3-1.6-8.3-1.6c-5.8,0-10.6,2.2-14.4,6.6c-3.8,4.4-5.6,11-5.6,19.9
		c0,8.9,2,15.2,6.1,18.9c4.1,3.7,8.7,5.6,13.9,5.6c5.1,0,9.3-1.5,12.5-4.4c3.3-2.9,5.3-6.7,6-11.5h-16.8v-12.1H759v39h-10l-1.5-9.1
		c-2.9,3.4-5.5,5.9-7.9,7.3c-4,2.5-8.9,3.7-14.8,3.7c-9.6,0-17.5-3.3-23.6-10c-6.4-6.7-9.6-15.8-9.6-27.5c0-11.7,3.2-21.2,9.7-28.3
		c6.5-7.1,15-10.6,25.7-10.6c9.2,0,16.6,2.3,22.2,7c5.6,4.7,8.8,10.5,9.6,17.5H743.9z"/>
	<path fill="#9d2235" d="M817,153.5c2.7,1.2,4.9,2.8,6.8,5.1c1.5,1.8,2.8,3.9,3.7,6.1c0.9,2.2,1.3,4.8,1.3,7.6c0,3.4-0.9,6.8-2.6,10.2
		c-1.7,3.3-4.6,5.7-8.6,7.1c3.3,1.3,5.7,3.3,7.1,5.7c1.4,2.5,2.1,6.3,2.1,11.4v4.9c0,3.3,0.1,5.6,0.4,6.7c0.4,1.9,1.3,3.3,2.8,4.1
		v1.8h-16.7c-0.5-1.6-0.8-2.9-1-3.9c-0.4-2-0.6-4.1-0.6-6.3l-0.1-6.7c-0.1-4.6-0.9-7.7-2.4-9.3c-1.5-1.5-4.4-2.3-8.6-2.3h-14.8v28.5
		h-14.8v-72.6h34.7C810.5,151.7,814.3,152.4,817,153.5z M785.7,164.3v19.5H802c3.2,0,5.7-0.4,7.3-1.2c2.9-1.4,4.3-4.1,4.3-8.2
		c0-4.4-1.4-7.4-4.2-8.9c-1.6-0.9-3.9-1.3-7-1.3H785.7z"/>
	<path fill="#9d2235" d="M861.1,151.6h17.2l25.7,72.6h-16.5l-4.8-14.9h-26.7l-4.9,14.9h-15.9L861.1,151.6z M860.1,196.8h18.6l-9.2-28.6L860.1,196.8
		z"/>
	<path fill="#9d2235" d="M958.9,192.8c-4.2,3.5-10.3,5.3-18.2,5.3h-15.1v26.1h-15.1v-72.6h31.2c7.2,0,12.9,1.9,17.2,5.6c4.3,3.7,6.4,9.5,6.4,17.4
		C965.3,183.2,963.1,189.3,958.9,192.8z M947.3,166.7c-1.9-1.6-4.6-2.4-8.1-2.4h-13.7v21.4h13.7c3.5,0,6.2-0.9,8.1-2.6
		c1.9-1.7,2.9-4.5,2.9-8.3S949.2,168.3,947.3,166.7z"/>
	<path fill="#9d2235" d="M974.3,224.3v-72.6h15.1v27.7h28.2v-27.7h15.1v72.6h-15.1v-32.4h-28.2v32.4H974.3z"/>
</g>
<g>
	<path fill="#9d2235" d="M308.2,224.9l28.5-72.6h7.8l27.8,72.6h-7.1l-8.4-22.8h-33.1l-8.6,22.8H308.2z M326.1,196.3h28.4l-14.2-38.1L326.1,196.3z"
		/>
	<path fill="#9d2235" d="M430.6,173.4c-1.4-6.2-4-10.6-7.9-13.2c-3.8-2.6-8.8-3.9-15-3.9c-4.4,0-8.1,0.9-11.3,2.6c-3.2,1.8-5.8,4.1-7.8,7.1
		c-2.1,3-3.6,6.4-4.5,10.2c-1,3.9-1.5,8-1.5,12.3c0,4,0.4,8,1.3,11.9c0.8,3.9,2.2,7.4,4.2,10.4c1.9,3.1,4.6,5.5,7.9,7.4
		c3.3,1.9,7.4,2.8,12.4,2.8c3.1,0,5.9-0.5,8.5-1.5c2.6-1,4.8-2.4,6.7-4.2c1.9-1.8,3.5-3.9,4.8-6.3c1.3-2.4,2.3-5.1,3-8h7.2
		c-0.8,3.5-2,6.8-3.5,9.9c-1.5,3.1-3.6,5.9-6.1,8.2c-2.5,2.4-5.6,4.2-9.2,5.6c-3.6,1.4-7.8,2.1-12.7,2.1c-5.6,0-10.4-1-14.3-3.1
		c-4-2.1-7.2-4.8-9.7-8.3c-2.5-3.5-4.4-7.5-5.5-12.2c-1.1-4.6-1.7-9.5-1.7-14.7c0-6.9,0.9-12.8,2.6-17.7c1.7-4.8,4.1-8.8,7.1-11.9
		c3-3.1,6.6-5.3,10.7-6.7c4.1-1.4,8.6-2.1,13.4-2.1c3.7,0,7.1,0.5,10.3,1.5c3.2,1,6,2.4,8.5,4.4c2.5,2,4.5,4.4,6.1,7.2
		c1.6,2.9,2.7,6.2,3.3,9.9H430.6z"/>
	<path fill="#9d2235" d="M448.6,224.9v-72.6h10.5l23.8,64.1h0.2l23.4-64.1h10.4v72.6H510v-64.8h-0.2L486,224.9h-6.5l-23.9-64.8h-0.2v64.8H448.6z"/>
</g>
<g id="b7EXOE.tif">
	<g>
		<path fill="#9d2235" d="M262.1,99.1c20.9,49.5,3.9,117.2-54.8,151.8c-55.6,32.8-120,17.8-152.5-18.3c23.4,2.2,44.9-4.6,65.9-13.4
			c41.3-17.3,78.1-41.6,109.8-73.4c10.8-10.8,20.6-22.6,27.3-36.5C259.5,106.1,260.7,102.6,262.1,99.1z"/>
		<path fill="#9d2235" d="M20.4,178.8C0,129.9,15.8,64.4,71.1,29.2c54.3-34.6,120.4-23,156.4,15.4c-0.1,0.1-0.2,0.4-0.3,0.4
			c-16-1.7-31.3,1.5-46.4,6.3c-33.6,10.8-63.8,28-92.1,48.7C69.4,114.2,51.6,130,36.8,149C29.9,157.9,23.9,167.3,20.4,178.8z"/>
		<path fill="#9d2235" d="M43.7,219.8c13,3.2,25.3,0.9,37.5-2.4c25.5-7,48.6-19.2,70.3-33.9c18.9-12.8,36.3-27.3,50.7-45.2
			c5.9-7.4,11.1-15.2,14-24.3c0.6-1.9,1.2-3.9,1.4-6C219,96.2,212,88.8,198.6,88c-11.2-0.8-22,1.5-32.7,4.7
			c-0.9,0.3-1.8,0.5-2.7,0.8c-0.1,0-0.2-0.1-0.9-0.3c6-2.6,11.5-5.1,17.1-7.4c13.5-5.5,27.2-10,41.7-12c6.8-1,13.7-1.3,20.5,0.2
			c10.9,2.5,15.6,9.8,13.1,20.7c-2.5,11-8.5,20.2-15.3,28.9c-14.7,18.8-32.5,34.3-51.7,48.2c-26.7,19.4-55.1,35.7-86.6,46.1
			c-12.8,4.2-25.8,7.6-39.3,7c-4.3-0.2-8.6-1.2-12.8-2.3C47.1,222.2,45.5,220.8,43.7,219.8z"/>
		<path fill="#9d2235" d="M238.5,58.7c-13.1-3.9-25.9-1.3-38.4,2.2c-26.3,7.4-49.9,20.2-72.2,35.7c-18.4,12.8-35.3,27.2-49,45
			c-5.8,7.5-11,15.5-13.3,24.9c-3.2,13,3,21.7,16.4,23.3c11.6,1.4,22.6-1.1,33.6-4.1c1.1-0.3,2.3-0.7,3.6-0.4
			c-4.9,2.2-9.8,4.4-14.7,6.4c-14.8,6-29.8,11.2-45.8,12.7c-5.3,0.5-10.8,0.5-16.1-0.3c-12.4-1.7-17.6-9.9-14.5-22
			c1.9-7.7,5.7-14.5,10.2-21c10.7-15.6,24-28.7,38.4-40.7C105.9,96,138.1,76.1,174,62.6c13-4.9,26.3-8.6,40.3-9.6
			c6.3-0.4,12.7-0.3,18.7,2c2,0.8,3.9,2,5.8,3C238.7,58.3,238.6,58.5,238.5,58.7z"/>
	</g>
</g>
</svg>
