<?xml version="1.0" encoding="utf-8"?>
<!-- Generator: Adobe Illustrator 19.1.0, SVG Export Plug-In . SVG Version: 6.00 Build 0)  -->
<svg version="1.1" id="Layer_1" xmlns="http://www.w3.org/2000/svg" xmlns:xlink="http://www.w3.org/1999/xlink" x="0px" y="0px"
	 viewBox="0 0 400 400" style="enable-background:new 0 0 400 400;" xml:space="preserve">
<style type="text/css">
	.st0{fill:#FFFFFF;}
</style>
<path class="st0" d="M20.7,104.4c1.6-4.6,3.1-9.2,4.8-13.8c0.5-1.3,1.3-2.4,2.2-3.9c37.6,32.9,74.9,65.6,112.6,98.5
	C102.4,227.5,64.6,269.8,26.1,313c-1.9-5.8-3.7-10.9-5.4-16C20.7,232.8,20.7,168.6,20.7,104.4z"/>
<path class="st0" d="M157.1,199.8c11.9,10.4,23.4,20.5,35,30.6c6.1,5.3,11.3,5.3,17.4-0.1c11.5-10.1,23.1-20.2,34.9-30.5
	c38.4,42.9,76.6,85.8,115.2,128.9c-7.2,4.6-14.6,7-22.7,7c-48.3,0-96.5,0-144.8,0c-42.5,0-85.1,0-127.6,0c-8,0-15.3-2.5-22.6-6.9
	C80.3,285.7,118.6,242.9,157.1,199.8z"/>
<path class="st0" d="M200.7,208.4c-52.2-45.7-104.2-91.2-156.5-137c6.4-3.8,12.9-5.7,19.9-5.7c14.8-0.1,29.5,0,44.3,0
	c75.9,0,151.9,0,227.8,0c7.4,0,14.2,1.8,21.1,5.7C305,117.2,253,162.7,200.7,208.4z"/>
<path class="st0" d="M261.1,185.2c37.6-32.9,75-65.6,112.6-98.5c4.4,6.8,7,13.9,7,21.6c0.1,61.5,0.1,123,0,184.6
	c0,6.9-2.1,13.3-5.8,19.6C336.9,270,299.1,227.7,261.1,185.2z"/>
</svg>
